<?xml version="1.0" standalone="no"?>
<!DOCTYPE svg PUBLIC "-//W3C//DTD SVG 20010904//EN"
 "http://www.w3.org/TR/2001/REC-SVG-20010904/DTD/svg10.dtd">
<svg version="1.0" xmlns="http://www.w3.org/2000/svg"
 width="120.000000pt" height="120.000000pt" viewBox="0 0 120.000000 120.000000"
 preserveAspectRatio="xMidYMid meet">
<metadata>
Created by potrace 1.14, written by Peter Selinger 2001-2017
</metadata>
<g transform="translate(0.000000,120.000000) scale(0.100000,-0.100000)"
fill="#000000" stroke="none">
<path d="M0 600 l0 -600 600 0 600 0 0 600 0 600 -600 0 -600 0 0 -600z m458
308 c8 -8 12 -50 12 -122 1 -74 5 -119 14 -135 l14 -24 13 24 c9 15 16 69 19
144 l5 120 68 3 c40 2 74 -2 82 -8 9 -8 14 -48 17 -135 3 -132 15 -167 40
-124 8 15 15 71 18 144 l5 120 74 3 c53 2 77 -1 82 -10 5 -7 9 -96 9 -198 l0
-185 -62 -122 -62 -123 -78 0 c-76 0 -78 1 -93 30 -19 37 -26 37 -47 0 -17
-31 -18 -31 -95 -28 l-77 3 -58 114 -58 113 0 198 c0 108 3 200 7 203 11 12
138 8 151 -5z"/>
<path d="M310 719 l0 -181 57 -119 57 -119 72 0 71 0 19 40 c10 22 22 40 26
40 3 0 15 -17 25 -37 l18 -38 71 -3 71 -3 57 113 56 113 0 188 0 188 -67 -3
-68 -3 -5 -120 c-5 -111 -20 -175 -41 -175 -4 0 -16 18 -28 40 -18 34 -21 58
-21 150 l0 110 -70 0 -70 0 0 -110 c0 -105 -18 -190 -40 -190 -4 0 -17 18 -29
40 -18 34 -21 58 -21 150 l0 110 -70 0 -70 0 0 -181z"/>
</g>
</svg>
